# xmcd CD database file generated by OrangeCD 6.5
#
# Track frame offsets:
#	150
#	16537
#	32784
#	47904
#	73582
#	90014
#	104745
#	125385
#	142080
#	158714
#	175128
#	199114
#	212599
#
# Disc length: 3048 seconds
#
# Revision: 1
# Processed by: cddbd v1.5.2PL0 Copyright (c) Steve Scherf et al.
# Submitted via: OrangeCD 6.5
#
DISCID=ab0be60d
DTITLE=Checkerboard Blues Band - Dedicated
DYEAR=1900
DGENRE=Blues
TTITLE0=Dedicated
TTITLE1=Early In The Morning
TTITLE2=I'm Not Your Plaything, Baby!
TTITLE3=My Kind Of Blues
TTITLE4=Giving Up The Streets
TTITLE5=Everyday I Have The Blues
TTITLE6=Trying To Change
TTITLE7=Excuses
TTITLE8=Wow, You Must Be Crazy!
TTITLE9=Twentynine Ways
TTITLE10=Chicago By Night
TTITLE11=Checkerboard Boogie
TTITLE12=Love Me Tender
EXTD=
EXTT0=
EXTT1=
EXTT2=
EXTT3=
EXTT4=
EXTT5=
EXTT6=
EXTT7=
EXTT8=
EXTT9=
EXTT10=
EXTT11=
EXTT12=
PLAYORDER=
